<svg id="color" enable-background="new 0 0 24 24" height="512" viewBox="0 0 24 24" width="512" xmlns="http://www.w3.org/2000/svg"><path d="m15 15v7c0 1.1-.9 2-2 2h-11c-1.1 0-2-.9-2-2v-9c0-1.1.9-2 2-2h5c0 2.21 1.79 4 4 4z" fill="#607d8b"/><path d="m12 22h-9c-.551 0-1-.448-1-1v-5h11v5c0 .552-.449 1-1 1z" fill="#fff"/><path d="m7 11h-5c-1.1 0-2 .9-2 2v9c0 1.1.9 2 2 2h5.5v-2h-4.5c-.551 0-1-.448-1-1v-5h5.5v-3.061c-.319-.574-.5-1.235-.5-1.939z" fill="#546d79"/><path d="m7.5 16h-5.5v5c0 .552.449 1 1 1h4.5z" fill="#dedede"/><path d="m22 0h-11c-1.104 0-2 .896-2 2v9c0 1.105.896 2 2 2h11c1.105 0 2-.896 2-2v-9c0-1.104-.895-2-2-2z" fill="#607d8b"/><path d="m21 11h-9c-.551 0-1-.448-1-1v-5h11v5c0 .552-.449 1-1 1z" fill="#fff"/><path d="m16.38 0h-5.38c-1.104 0-2 .896-2 2v9c0 1.105.896 2 2 2h5.38v-2h-4.38c-.551 0-1-.448-1-1v-5h5.38z" fill="#546d79"/><path d="m16.38 5h-5.38v5c0 .552.449 1 1 1h4.38z" fill="#dedede"/><path d="m6.25 5h-1.25v-1c0-.551.448-1 1-1s1-.448 1-1-.448-1-1-1c-1.654 0-3 1.346-3 3v1h-1.25c-.297 0-.564.174-.686.445-.119.27-.071.586.128.807l2.25 2.5c.143.158.345.248.558.248.212 0 .415-.09.558-.248l2.25-2.5c.126-.141.192-.32.192-.502 0-.104-.021-.207-.065-.305-.121-.271-.389-.445-.685-.445z" fill="#4caf50"/><path d="m4 1.766c-.613.549-1 1.347-1 2.234v1h-1.25c-.297 0-.564.174-.686.445-.119.27-.071.586.128.807l2.25 2.5c.143.158.345.248.558.248z" fill="#429846"/><path d="m22.808 17.748-2.25-2.5c-.143-.158-.345-.248-.558-.248-.212 0-.415.09-.558.248l-2.25 2.5c-.126.141-.192.32-.192.502 0 .103.021.207.065.305.121.271.389.445.685.445h1.25v1c0 .551-.448 1-1 1s-1 .448-1 1 .448 1 1 1c1.654 0 3-1.346 3-3v-1h1.25c.297 0 .565-.174.686-.445.119-.27.071-.586-.128-.807z" fill="#4caf50"/><path d="m20 15c-.212 0-.415.09-.558.248l-2.25 2.5c-.126.141-.192.32-.192.502 0 .103.021.207.065.305.121.271.389.445.685.445h1.25v1c0 .551-.448 1-1 1s-1 .448-1 1 .448 1 1 1c.768 0 1.469-.29 2-.766z" fill="#429846"/></svg>